<?xml version="1.0" encoding="UTF-8" standalone="no"?>
<!DOCTYPE svg PUBLIC "-//W3C//DTD SVG 1.1//EN" "http://www.w3.org/Graphics/SVG/1.1/DTD/svg11.dtd">
<svg width="100%" height="100%" viewBox="0 0 250 250" version="1.1" xmlns="http://www.w3.org/2000/svg" xmlns:xlink="http://www.w3.org/1999/xlink" xml:space="preserve" xmlns:serif="http://www.serif.com/" style="fill-rule:evenodd;clip-rule:evenodd;stroke-linejoin:round;stroke-miterlimit:2;">
    <g transform="matrix(1,0,0,1,-2871.479227,0)">
        <g id="Artboard8" transform="matrix(1.612251,0,0,1.612251,-1310.285862,959.323117)">
            <rect x="2593.743" y="-595.021" width="155.063" height="155.063" style="fill:none;"/>
            <g transform="matrix(1.352113,0,0,1.352113,-457.10765,253.662011)">
                <g transform="matrix(2.2255,0,0,4.911963,-2401.382134,2260.838422)">
                    <path d="M2109.593,-572.448L2109.593,-581.682C2109.593,-581.682 2130.883,-584.699 2137.4,-585.622C2137.838,-585.684 2138.316,-585.648 2138.685,-585.525C2139.055,-585.402 2139.274,-585.206 2139.274,-584.998L2139.274,-569.132C2139.274,-568.924 2139.055,-568.729 2138.685,-568.605C2138.316,-568.482 2137.838,-568.446 2137.4,-568.508C2130.883,-569.432 2109.593,-572.448 2109.593,-572.448Z" style="fill:rgb(242,13,94);"/>
                </g>
                <g transform="matrix(2.2255,0,0,2.442524,-2401.382134,835.811311)">
                    <path d="M2106.002,-568.257L2102.883,-568.257C2100.215,-568.257 2098.049,-570.23 2098.049,-572.661L2098.049,-581.469C2098.049,-583.9 2100.215,-585.874 2102.883,-585.874L2106.002,-585.874L2106.002,-568.257Z" style="fill:rgb(242,13,94);"/>
                </g>
                <g transform="matrix(1.598087,0,0,1.640977,-1059.213376,367.747105)">
                    <path d="M2108.639,-552.541L2108.639,-549.312C2108.639,-545.943 2105.83,-543.207 2102.37,-543.207L2099.235,-543.207C2095.774,-543.207 2092.965,-545.943 2092.965,-549.312L2092.965,-557.314L2108.639,-552.541Z" style="fill:rgb(242,13,94);"/>
                </g>
            </g>
        </g>
    </g>
</svg>
